<svg width="285" height="480" viewBox="0 0 285 480" fill="none" xmlns="http://www.w3.org/2000/svg">
<g opacity="0.4">
<path d="M43.8048 151.596C30.409 151.596 19.5495 162.455 19.5495 175.851V199.99C19.5495 213.386 30.409 224.245 43.8048 224.245H82.8462C96.2421 224.245 107.102 235.105 107.102 248.501V455.66C107.102 469.056 117.961 479.916 131.357 479.916H174.124C187.52 479.916 198.379 469.056 198.379 455.66V248.501C198.379 235.105 209.239 224.245 222.634 224.245H260.744C274.14 224.245 285 213.386 285 199.99V175.851C285 162.455 274.14 151.596 260.744 151.596H43.8048Z" fill="#0093AD"/>
<rect width="54.5745" height="54.5745" rx="20.2128" transform="matrix(-1 0 0 1 82.8721 250.638)" fill="#0093AD"/>
<rect opacity="0.2" width="121.277" height="121.277" rx="20.2128" transform="matrix(-1 0 0 1 204.149 0)" fill="#0093AD"/>
<rect opacity="0.6" width="56.5957" height="56.5957" rx="20.2128" transform="matrix(-1 0 0 1 56.5957 66.7021)" fill="#0093AD"/>
</g>
</svg>
